<svg xmlns="http://www.w3.org/2000/svg" viewBox="0 0 95 95"><defs><style>.cls-1{fill:#fff;}.cls-2{fill:#c1acc5;}</style></defs><title>KC_Icon_ClassSize</title><g id="Layer_2" data-name="Layer 2"><g id="Layer_1-2" data-name="Layer 1"><g id="Group_556" data-name="Group 556"><g id="Group_550" data-name="Group 550"><g id="Ellipse_336" data-name="Ellipse 336"><path class="cls-1" d="M47.5,95A47.5,47.5,0,1,1,95,47.5,47.56,47.56,0,0,1,47.5,95Zm0-89A41.5,41.5,0,1,0,89,47.5,41.55,41.55,0,0,0,47.5,6Z"/></g></g></g><path class="cls-1" d="M26.91,30.75v5.89a1,1,0,0,1-1,1h-.69v5.88a1,1,0,0,1-1,1H21.37a1,1,0,0,1-1-1V37.68h-.69a1,1,0,0,1-1-1V30.75a2.08,2.08,0,0,1,2.08-2.08h.49a3.74,3.74,0,0,0,3.17,0h.49A2.08,2.08,0,0,1,26.91,30.75Zm-1.39-5.54a2.77,2.77,0,1,1-2.77-2.77A2.77,2.77,0,0,1,25.52,25.21Z"/><path class="cls-1" d="M39.28,30.75v5.89a1,1,0,0,1-1,1h-.69v5.88a1,1,0,0,1-1,1H33.74a1,1,0,0,1-1-1V37.68H32a1,1,0,0,1-1-1V30.75a2.08,2.08,0,0,1,2.08-2.08h.49a3.74,3.74,0,0,0,3.17,0h.49A2.08,2.08,0,0,1,39.28,30.75ZM37.9,25.21a2.77,2.77,0,1,1-2.77-2.77A2.77,2.77,0,0,1,37.9,25.21Z"/><path class="cls-1" d="M51.66,30.75v5.89a1,1,0,0,1-1,1h-.7v5.88a1,1,0,0,1-1,1H46.12a1,1,0,0,1-1-1V37.68h-.7a1,1,0,0,1-1-1V30.75a2.08,2.08,0,0,1,2.08-2.08h.49a3.76,3.76,0,0,0,3.18,0h.49A2.08,2.08,0,0,1,51.66,30.75Zm-1.39-5.54a2.77,2.77,0,1,1-2.77-2.77A2.77,2.77,0,0,1,50.27,25.21Z"/><path class="cls-1" d="M64,30.75v5.89a1,1,0,0,1-1,1H62.3v5.88a1,1,0,0,1-1,1H58.49a1,1,0,0,1-1-1V37.68h-.69a1,1,0,0,1-1-1V30.75a2.08,2.08,0,0,1,2.08-2.08h.49a3.74,3.74,0,0,0,3.17,0H62A2.08,2.08,0,0,1,64,30.75Zm-1.39-5.54a2.77,2.77,0,1,1-2.77-2.77A2.77,2.77,0,0,1,62.64,25.21Z"/><path class="cls-2" d="M76.4,30.75v5.89a1,1,0,0,1-1,1h-.69v5.88a1,1,0,0,1-1,1H70.86a1,1,0,0,1-1-1V37.68h-.69a1,1,0,0,1-1-1V30.75a2.08,2.08,0,0,1,2.08-2.08h.49a3.74,3.74,0,0,0,3.17,0h.49A2.08,2.08,0,0,1,76.4,30.75ZM75,25.21a2.77,2.77,0,1,1-2.77-2.77A2.77,2.77,0,0,1,75,25.21Z"/><path class="cls-2" d="M26.91,58.71V64.6a1,1,0,0,1-1,1h-.69v5.89a1,1,0,0,1-1,1H21.37a1,1,0,0,1-1-1V65.63h-.69a1,1,0,0,1-1-1V58.71a2.08,2.08,0,0,1,2.08-2.08h.49a3.81,3.81,0,0,0,3.17,0h.49A2.08,2.08,0,0,1,26.91,58.71Zm-1.39-5.54a2.77,2.77,0,1,1-2.77-2.77A2.77,2.77,0,0,1,25.52,53.17Z"/><path class="cls-2" d="M39.28,58.71V64.6a1,1,0,0,1-1,1h-.69v5.89a1,1,0,0,1-1,1H33.74a1,1,0,0,1-1-1V65.63H32a1,1,0,0,1-1-1V58.71a2.08,2.08,0,0,1,2.08-2.08h.49a3.81,3.81,0,0,0,3.17,0h.49A2.08,2.08,0,0,1,39.28,58.71ZM37.9,53.17a2.77,2.77,0,1,1-2.77-2.77A2.77,2.77,0,0,1,37.9,53.17Z"/><path class="cls-2" d="M51.66,58.71V64.6a1,1,0,0,1-1,1h-.7v5.89a1,1,0,0,1-1,1H46.12a1,1,0,0,1-1-1V65.63h-.7a1,1,0,0,1-1-1V58.71a2.08,2.08,0,0,1,2.08-2.08h.49a3.84,3.84,0,0,0,3.18,0h.49A2.08,2.08,0,0,1,51.66,58.71Zm-1.39-5.54A2.77,2.77,0,1,1,47.5,50.4,2.77,2.77,0,0,1,50.27,53.17Z"/><path class="cls-2" d="M64,58.71V64.6a1,1,0,0,1-1,1H62.3v5.89a1,1,0,0,1-1,1H58.49a1,1,0,0,1-1-1V65.63h-.69a1,1,0,0,1-1-1V58.71a2.08,2.08,0,0,1,2.08-2.08h.49a3.81,3.81,0,0,0,3.17,0H62A2.08,2.08,0,0,1,64,58.71Zm-1.39-5.54a2.77,2.77,0,1,1-2.77-2.77A2.77,2.77,0,0,1,62.64,53.17Z"/><path class="cls-2" d="M76.4,58.71V64.6a1,1,0,0,1-1,1h-.69v5.89a1,1,0,0,1-1,1H70.86a1,1,0,0,1-1-1V65.63h-.69a1,1,0,0,1-1-1V58.71a2.08,2.08,0,0,1,2.08-2.08h.49a3.81,3.81,0,0,0,3.17,0h.49A2.08,2.08,0,0,1,76.4,58.71ZM75,53.17a2.77,2.77,0,1,1-2.77-2.77A2.77,2.77,0,0,1,75,53.17Z"/></g></g></svg>