<svg xmlns="http://www.w3.org/2000/svg" viewBox="0 0 95 95"><defs><style>.cls-1{fill:#fff;}</style></defs><title>KC_Icon_Support</title><g id="Layer_2" data-name="Layer 2"><g id="Layer_1-2" data-name="Layer 1"><g id="Group_485" data-name="Group 485"><g id="Ellipse_339" data-name="Ellipse 339"><path class="cls-1" d="M47.5,95A47.5,47.5,0,1,1,95,47.5,47.56,47.56,0,0,1,47.5,95Zm0-89A41.5,41.5,0,1,0,89,47.5,41.55,41.55,0,0,0,47.5,6Z"/></g><g id="Group_484" data-name="Group 484"><path id="Path_835" data-name="Path 835" class="cls-1" d="M78,47.05a7.68,7.68,0,0,0-15.35,0v.13c0,3.64-1.3,6.26-4,8a13.53,13.53,0,0,1-3.74,1.63,7.52,7.52,0,0,0-4.51-9.64A7.38,7.38,0,0,0,48,46.72H20.06A2.06,2.06,0,0,0,18,48.78h0v2A26.19,26.19,0,0,0,20.39,62a24.18,24.18,0,0,0,6.54,8.37c5.38,4.42,12.86,6.86,21.07,6.86A30,30,0,0,0,78,47.27v-.09A.57.57,0,0,0,78,47.05Zm-30,26c-12.86,0-25.83-6.87-25.88-22.22H47.87a3.41,3.41,0,0,1,0,6.81H34.28a2.06,2.06,0,1,0,0,4.12H48.36c5.24,0,9.47-1.1,12.58-3.14,3.79-2.48,5.8-6.4,5.82-11.35v-.05a3.56,3.56,0,1,1,7.12,0A25.9,25.9,0,0,1,48,73.06Z"/><path id="Path_836" data-name="Path 836" class="cls-1" d="M34.9,45.8A2.06,2.06,0,0,0,37,43.74h0a9.72,9.72,0,0,1,19.44,0v6a2.06,2.06,0,1,0,4.12,0h0v-6a13.85,13.85,0,0,0-7.85-12.48,8.32,8.32,0,1,0-12,0,13.85,13.85,0,0,0-7.85,12.48A2.06,2.06,0,0,0,34.9,45.8ZM46.68,21.3a4.2,4.2,0,1,1-4.2,4.2,4.2,4.2,0,0,1,4.2-4.2Z"/></g></g></g></g></svg>