<svg xmlns="http://www.w3.org/2000/svg" viewBox="0 0 95 95"><defs><style>.cls-1{fill:#fff;}</style></defs><title>KC_Icon_Teachers</title><g id="Layer_2" data-name="Layer 2"><g id="Layer_1-2" data-name="Layer 1"><g id="Group_555" data-name="Group 555"><g id="Group_487" data-name="Group 487"><g id="Ellipse_337" data-name="Ellipse 337"><path class="cls-1" d="M47.5,95A47.5,47.5,0,1,1,95,47.5,47.56,47.56,0,0,1,47.5,95Zm0-89A41.5,41.5,0,1,0,89,47.5,41.55,41.55,0,0,0,47.5,6Z"/></g><path id="Path_763" data-name="Path 763" class="cls-1" d="M55.58,53.8l-7.64,7.64L40.3,53.8A10.74,10.74,0,0,0,30,64.51v.77a3.84,3.84,0,0,0,3.84,3.84H62a3.86,3.86,0,0,0,3.85-3.84v-.77A10.74,10.74,0,0,0,55.58,53.8ZM31.09,34.51l.51.12v4.68a1.86,1.86,0,0,0-.07,3.21l-1.25,5c-.14.55.17,1.12.61,1.12h3.35c.44,0,.74-.57.61-1.12l-1.25-5a1.87,1.87,0,0,0,.89-1.57,1.91,1.91,0,0,0-1-1.63V35.1l5.28,1.27a10.18,10.18,0,0,0,9.13,14.82h0A10.25,10.25,0,0,0,58.19,40.94h0a10.08,10.08,0,0,0-1.12-4.57l7.71-1.86a1.27,1.27,0,0,0,0-2.52L49.53,28.31a6.84,6.84,0,0,0-3.18,0L31.09,32A1.29,1.29,0,0,0,30,33.45,1.26,1.26,0,0,0,31.09,34.51Z"/></g></g></g></g></svg>